<svg width="1559" height="291" viewBox="0 0 1559 291" fill="none" xmlns="http://www.w3.org/2000/svg">
<path d="M263.253 70.6907L162.146 77.5781C152.228 80.3331 150.575 81.7105 148.095 91.6284C134.596 140.391 135.973 200.449 127.433 250.589C124.678 258.854 119.719 263.262 110.903 262.16C107.873 261.885 107.322 263.262 107.873 259.13C115.587 200.725 121.097 142.32 132.117 84.4655C91.0677 85.843 48.6413 82.537 9.24546 94.3833C-0.396893 94.6588 -1.77437 83.9145 1.80707 76.4761C15.5819 72.0682 30.1831 70.6907 44.2334 69.0377C78.6704 64.6298 118.617 60.2219 153.054 58.8444C191.073 57.1914 229.367 61.3238 267.109 56.9159C266.283 50.0285 276.752 8.97966 280.609 8.42867L291.353 10.6326L283.364 54.9874C285.568 57.1914 331.024 49.202 325.79 69.0377C314.219 70.4152 299.342 67.1093 288.323 69.0377C286.119 69.3132 265.456 70.9662 265.456 70.9662L263.253 70.6907Z" fill="#F1EBE3"/>
<path d="M1200.21 232.13C1204.62 236.538 1257.79 200.173 1266.05 196.04C1274.32 192.183 1296.91 183.367 1304.07 189.704C1312.06 196.867 1309.03 216.151 1309.03 224.967C1309.03 232.957 1310.68 261.333 1307.1 265.465C1299.66 273.73 1293.33 261.333 1291.4 254.721C1286.99 239.293 1294.7 221.661 1288.92 206.784C1284.24 203.203 1268.53 212.845 1263.3 215.6C1251.45 221.661 1240.43 229.375 1229.41 236.538C1223.9 240.119 1218.12 243.701 1212.33 247.007C1207.37 249.762 1201.86 253.894 1196.08 253.894C1193.87 253.894 1191.67 253.619 1189.74 252.517C1182.03 248.66 1181.48 240.67 1182.85 233.232C1183.68 228.273 1184.23 223.314 1184.23 218.355C1184.23 215.6 1184.23 210.917 1182.58 208.713C1180.93 206.509 1177.34 207.886 1175.42 208.713C1167.98 211.743 1161.64 217.529 1155.58 222.488C1153.38 224.416 1151.17 226.345 1148.97 227.998C1141.8 234.059 1126.93 250.588 1120.87 254.17C1117.01 256.374 1111.78 256.925 1108.19 254.17C1104.34 251.139 1104.89 245.905 1107.92 242.323C1109.85 240.395 1112.05 238.742 1114.53 237.364C1125.55 230.477 1135.74 222.212 1144.84 212.845C1153.38 204.029 1163.57 195.489 1174.04 189.704C1177.07 188.051 1180.37 186.398 1183.68 185.571C1191.94 183.643 1197.73 191.081 1199.66 198.52C1201.31 205.131 1200.49 212.019 1200.49 218.631C1200.49 221.661 1200.49 224.692 1200.49 227.722C1200.21 228.824 1199.66 231.579 1200.21 232.13Z" fill="#F1EBE3"/>
<path d="M1355.59 238.186C1363.58 243.42 1372.12 243.42 1380.94 244.247C1404.63 246.726 1454.49 240.941 1456.7 255.266C1457.52 260.501 1448.71 261.327 1443.47 262.154C1419.23 265.46 1366.61 262.429 1343.74 253.338C1323.91 245.349 1321.15 231.298 1323.63 210.912C1327.77 175.373 1394.99 165.73 1412.62 190.8C1430.25 215.871 1396.92 223.584 1378.18 229.094C1374.6 229.921 1350.63 232.676 1355.59 238.186ZM1341.54 218.074C1361.65 219.176 1380.66 209.81 1398.02 200.994C1382.87 188.045 1339.61 193.28 1341.54 218.074Z" fill="#F1EBE3"/>
<path d="M432.684 238.186C440.673 243.42 449.213 243.42 458.029 244.247C481.722 246.726 531.586 240.941 533.79 255.266C534.617 260.501 525.801 261.327 520.567 262.154C496.323 265.46 443.703 262.429 420.837 253.338C401.001 245.349 398.247 231.298 400.726 210.912C404.858 175.373 472.079 165.73 489.711 190.8C507.343 215.871 474.008 223.584 455.274 229.094C451.693 229.921 427.725 232.676 432.684 238.186ZM418.633 218.074C438.744 219.176 457.754 209.81 475.11 200.994C459.958 188.045 416.705 193.28 418.633 218.074Z" fill="#F1EBE3"/>
<path d="M1502.15 185.842C1501.33 186.118 1498.57 189.148 1499.12 189.975C1511.79 195.209 1553.39 210.637 1557.25 223.585C1560.56 234.605 1557.53 242.319 1547.61 247.278C1537.69 252.237 1510.97 259.951 1499.67 261.879C1496.09 262.43 1479.56 268.216 1475.98 264.359C1460.55 246.451 1517.86 238.738 1528.6 234.33C1543.48 228.269 1530.25 222.208 1521.99 218.351C1509.59 212.29 1458.07 200.995 1467.72 179.781C1475.15 163.252 1539.07 166.833 1550.92 174.823C1556.42 178.404 1542.65 185.842 1540.45 185.842C1531.35 185.842 1509.04 183.914 1502.15 185.842Z" fill="#F1EBE3"/>
<path d="M1058.88 216.989C1059.44 211.479 1063.84 197.153 1069.08 194.673C1071.56 192.745 1073.76 194.673 1075.14 196.602C1080.65 204.316 1072.66 247.018 1072.66 258.864C1070.45 264.925 1058.88 265.476 1058.88 261.343C1058.88 247.844 1057.23 229.937 1058.88 216.989Z" fill="#F1EBE3"/>
<path d="M1067.98 69.5899C1069.08 72.6203 1071.01 75.6508 1073.21 78.1302C1077.35 82.5382 1084.51 85.0176 1090.02 87.7726C1100.76 93.007 1107.37 98.7924 1109.3 111.19C1110.13 115.873 1110.68 122.21 1110.13 126.893C1110.13 127.444 1109.85 129.097 1109.58 129.372H1109.3C1108.75 123.587 1109.3 117.526 1107.93 112.016C1106.55 105.955 1101.86 99.6189 1096.63 96.313C1093.05 93.8335 1089.47 93.007 1085.06 93.007C1082.86 93.007 1080.38 92.7315 1078.45 93.558V93.8335C1085.61 110.088 1092.5 126.342 1099.66 142.596C1102.14 151.137 1096.35 161.33 1088.64 164.911C1080.93 168.493 1074.04 162.707 1075.69 154.443C1077.07 147.555 1083.41 140.117 1090.57 138.739C1091.67 138.464 1093.05 138.464 1094.43 138.464L1065.22 70.6919L1067.98 69.5899Z" fill="#F1EBE3"/>
<path d="M874.301 233.237C871.546 233.237 868.515 233.513 866.587 233.788C859.149 234.615 851.986 235.441 844.547 236.543C810.937 240.676 775.673 247.563 742.614 237.921C729.666 234.064 717.544 227.727 707.35 219.187C695.78 209.269 686.413 196.596 682.831 181.72C678.974 166.292 682.005 150.864 689.443 136.814C697.708 121.662 709.554 110.366 723.054 99.8974C736.277 89.4286 750.052 80.0617 764.929 72.0723C786.418 60.226 809.008 50.8592 832.701 44.2473C836.833 43.1453 840.966 42.0433 844.272 39.5639C847.578 37.0844 850.057 32.6765 848.68 28.544C834.354 28.2685 820.304 31.299 807.08 35.9824C792.754 41.2168 779.255 48.1042 766.031 54.7161C747.297 64.3585 728.288 73.7253 711.207 86.1226C685.311 104.856 662.72 132.13 662.996 165.741C662.996 181.72 667.128 197.698 675.393 211.198C684.209 225.248 696.882 236.819 709.83 246.737C716.442 251.696 723.605 256.379 731.043 259.96C739.308 263.542 747.297 265.195 756.113 265.746C775.398 267.123 794.958 266.021 814.243 264.093C836.007 261.889 856.394 256.103 877.331 249.767C877.331 249.767 882.841 247.012 882.841 239.574C882.566 234.89 878.709 233.513 874.301 233.237Z" fill="#F1EBE3"/>
<path d="M1028.59 269.323C1025.83 240.671 1025.56 196.316 987.263 183.643C965.498 176.481 941.53 187.776 930.511 207.612C927.756 212.571 925.001 217.529 921.695 222.213C920.042 224.417 918.389 226.345 916.46 227.998C916.185 228.274 911.501 230.753 911.501 230.202C914.807 156.369 921.144 82.261 937.673 10.3566C933.265 9.80565 928.031 5.94871 924.45 10.3566C921.144 14.4891 913.43 46.9976 912.052 54.436C910.124 63.5273 908.746 72.6187 907.369 81.71C905.991 91.0769 904.889 100.168 903.787 109.535C902.685 118.902 901.859 128.269 901.032 137.636C900.206 147.003 899.655 156.369 898.829 165.736C898.002 175.103 897.451 184.47 896.625 193.837C895.798 203.204 894.972 212.295 894.145 221.662C893.87 223.59 893.87 225.243 893.594 227.172C893.319 230.753 892.492 234.61 893.594 237.916C894.421 240.947 896.625 243.426 899.379 245.079C902.41 247.007 906.267 247.834 909.848 248.385C912.603 248.66 915.358 248.936 918.113 248.109C921.695 246.732 924.174 243.151 926.378 240.12C929.133 236.539 931.337 232.682 933.816 229.1C935.745 226.345 937.398 223.315 939.326 220.56C945.387 211.469 953.101 204.03 963.295 199.347C968.804 196.867 975.141 195.49 981.202 196.316C1003.52 198.796 1009.3 222.213 1010.68 240.947C1011.23 250.313 1011.23 259.68 1012.61 268.772C1013.71 275.935 1016.19 283.648 1022.8 287.781C1039.61 298.525 1029.14 275.659 1028.59 269.323Z" fill="#F1EBE3"/>
<path d="M386.668 261.053C383.913 232.402 383.638 188.047 345.344 175.374C323.579 168.211 299.611 179.507 288.592 199.342C285.837 204.301 283.082 209.26 279.776 213.944C278.123 216.148 276.47 218.076 274.541 219.729C274.266 220.005 269.582 222.484 269.582 221.933C272.888 148.1 279.225 73.9918 295.754 2.08742C291.346 1.53643 286.112 -2.32051 282.531 2.08742C279.225 6.21985 271.511 38.7284 270.133 46.1667C268.205 55.2581 266.827 64.3495 265.45 73.4408C264.072 82.8077 262.97 91.899 261.868 101.266C260.766 110.633 259.94 120 259.113 129.366C258.287 138.733 257.736 148.1 256.909 157.467C256.083 166.834 255.532 176.201 254.706 185.568C253.879 194.934 253.053 204.026 252.226 213.393C251.951 215.321 251.951 216.974 251.675 218.903C251.4 222.484 250.573 226.341 251.675 229.647C252.502 232.677 254.706 235.157 257.46 236.81C260.491 238.738 264.348 239.565 267.929 240.116C270.684 240.391 273.439 240.667 276.194 239.84C279.776 238.463 282.255 234.881 284.459 231.851C287.214 228.269 289.418 224.412 291.897 220.831C293.826 218.076 295.479 215.046 297.407 212.291C303.468 203.199 311.182 195.761 321.376 191.077C326.885 188.598 333.222 187.221 339.283 188.047C361.598 190.526 367.383 213.944 368.761 232.677C369.312 242.044 369.312 251.411 370.689 260.502C371.791 267.665 374.271 275.379 380.883 279.512C397.688 290.256 387.219 267.39 386.668 261.053Z" fill="#F1EBE3"/>
</svg>
